<?xml version="1.0" encoding="UTF-8"?> <!-- Generator: Adobe Illustrator 23.0.1, SVG Export Plug-In . SVG Version: 6.00 Build 0) --> <svg xmlns="http://www.w3.org/2000/svg" xmlns:xlink="http://www.w3.org/1999/xlink" id="Слой_1" x="0px" y="0px" viewBox="0 0 570.1 608.6" style="enable-background:new 0 0 570.1 608.6;" xml:space="preserve"> <style type="text/css"> .st0{fill:url(#SVGID_1_);} .st1{fill:url(#SVGID_2_);} .st2{opacity:0.5;fill:url(#SVGID_3_);} .st3{fill:url(#SVGID_4_);} .st4{fill:url(#SVGID_5_);} .st5{fill:url(#SVGID_6_);} .st6{opacity:0.75;fill:#F6F6F6;} .st7{opacity:0.25;fill:#F6F6F6;} .st8{opacity:0.25;fill:#E6E6E6;} .st9{opacity:0.25;fill:#CACACA;} .st10{opacity:0.25;fill:#D9D9D9;} .st11{opacity:0.5;fill:#F6F6F6;} .st12{opacity:0.5;fill:#E6E6E6;} .st13{opacity:0.5;fill:#CACACA;} .st14{opacity:0.5;fill:#D9D9D9;} .st15{fill:#D9D9D9;} .st16{fill:#EDEDED;} .st17{opacity:0.58;fill:#A2A2A2;} .st18{opacity:0.58;fill:#747474;} .st19{opacity:0.75;fill:#EDEDED;} .st20{opacity:0.75;fill:#A2A2A2;} .st21{opacity:0.75;fill:#747474;} .st22{opacity:0.5;fill:#EDEDED;} .st23{opacity:0.5;fill:#A2A2A2;} .st24{opacity:0.5;fill:#747474;} .st25{opacity:0.25;fill:#EDEDED;} .st26{opacity:0.25;fill:#A2A2A2;} .st27{opacity:0.25;fill:#747474;} .st28{opacity:0.25;} .st29{fill:#81B833;} .st30{opacity:0.5;} .st31{opacity:0.75;} .st32{opacity:0.75;fill:#E6E6E6;} .st33{fill:#E6E6E6;} .st34{fill:#CACACA;} .st35{fill:#F6F6F6;} .st36{fill:#A2A2A2;} .st37{fill:#747474;} .st38{fill:url(#SVGID_7_);} .st39{fill:url(#SVGID_8_);} .st40{opacity:0.9;fill:#F6F6F6;} .st41{opacity:0.8;fill:#F6F6F6;} .st42{opacity:0.6;fill:#E6E6E6;} .st43{opacity:0.9;fill:#E6E6E6;} .st44{opacity:0.53;fill:url(#SVGID_9_);} .st45{opacity:0.25;fill:url(#SVGID_10_);} .st46{fill:url(#SVGID_11_);} .st47{fill:url(#SVGID_12_);} .st48{fill:url(#SVGID_13_);} .st49{opacity:0.2;fill:url(#SVGID_14_);} .st50{fill:url(#SVGID_15_);} .st51{opacity:0.26;fill:url(#SVGID_16_);} .st52{fill:url(#SVGID_17_);} .st53{opacity:0.5;fill:url(#SVGID_18_);} .st54{opacity:0.31;fill:url(#SVGID_19_);} .st55{fill:url(#SVGID_20_);} .st56{opacity:0.53;fill:url(#SVGID_21_);} .st57{opacity:0.5;fill:url(#SVGID_22_);} .st58{fill:url(#SVGID_23_);} .st59{fill:url(#SVGID_24_);} .st60{fill:url(#SVGID_25_);} .st61{opacity:0.51;fill:url(#SVGID_26_);} .st62{fill:url(#SVGID_27_);} .st63{opacity:0.26;fill:url(#SVGID_28_);} .st64{fill:url(#SVGID_29_);} .st65{fill:url(#SVGID_30_);} .st66{opacity:0.31;fill:url(#SVGID_31_);} .st67{fill:url(#SVGID_32_);} .st68{fill:url(#SVGID_33_);} .st69{opacity:0.5;fill:#EEFFD4;} .st70{fill:none;stroke:url(#SVGID_34_);stroke-width:2;stroke-linecap:round;stroke-linejoin:round;stroke-miterlimit:10;} .st71{fill:url(#SVGID_35_);} .st72{fill:url(#SVGID_36_);} .st73{fill:url(#SVGID_37_);} .st74{fill:url(#SVGID_38_);} .st75{opacity:0.27;fill:#518EF3;} .st76{fill:url(#SVGID_39_);} .st77{opacity:0.94;fill:url(#SVGID_40_);} .st78{opacity:0.94;fill:url(#SVGID_41_);} .st79{fill:url(#SVGID_42_);} .st80{opacity:0.73;fill:#518EF3;} .st81{fill:url(#SVGID_43_);} .st82{fill:url(#SVGID_44_);} .st83{fill:url(#SVGID_45_);} .st84{fill:url(#SVGID_46_);} .st85{fill:url(#SVGID_47_);} .st86{fill:url(#SVGID_48_);} .st87{fill:url(#SVGID_49_);} </style> <linearGradient id="SVGID_1_" gradientUnits="userSpaceOnUse" x1="99.8392" y1="317.4619" x2="99.8392" y2="105.9829"> <stop offset="5.586592e-03" style="stop-color:#9BC146;stop-opacity:0.6"></stop> <stop offset="1" style="stop-color:#9DC34C;stop-opacity:0"></stop> </linearGradient> <path class="st0" d="M99.9,317.5c-0.8,0-1.5-0.7-1.5-1.5l-0.1-208.5c0-0.8,0.7-1.5,1.5-1.5h0c0.8,0,1.5,0.7,1.5,1.5l0.1,208.5 C101.4,316.8,100.7,317.5,99.9,317.5L99.9,317.5z"></path> <linearGradient id="SVGID_2_" gradientUnits="userSpaceOnUse" x1="467.4303" y1="296.3125" x2="467.4303" y2="174.8062"> <stop offset="5.586592e-03" style="stop-color:#9BC146;stop-opacity:0.6"></stop> <stop offset="1" style="stop-color:#9DC34C;stop-opacity:0"></stop> </linearGradient> <path class="st1" d="M467.5,296.3c-0.8,0-1.5-0.7-1.5-1.5l-0.1-118.5c0-0.8,0.7-1.5,1.5-1.5h0c0.8,0,1.5,0.7,1.5,1.5l0.1,118.5 C469,295.6,468.3,296.3,467.5,296.3L467.5,296.3z"></path> <linearGradient id="SVGID_3_" gradientUnits="userSpaceOnUse" x1="236.8158" y1="234.0244" x2="236.8158" y2="22.5459"> <stop offset="5.586592e-03" style="stop-color:#9BC146;stop-opacity:0.6"></stop> <stop offset="1" style="stop-color:#9DC34C;stop-opacity:0"></stop> </linearGradient> <path class="st2" d="M236.9,234c-0.8,0-1.5-0.7-1.5-1.5L235.3,24c0-0.8,0.7-1.5,1.5-1.5h0c0.8,0,1.5,0.7,1.5,1.5l0.1,208.5 C238.4,233.4,237.7,234,236.9,234L236.9,234z"></path> <linearGradient id="SVGID_4_" gradientUnits="userSpaceOnUse" x1="214.8895" y1="329.5137" x2="214.8895" y2="118.0352"> <stop offset="5.586592e-03" style="stop-color:#9BC146;stop-opacity:0.6"></stop> <stop offset="1" style="stop-color:#9DC34C;stop-opacity:0"></stop> </linearGradient> <path class="st3" d="M214.9,329.5c-0.8,0-1.5-0.7-1.5-1.5l-0.1-208.5c0-0.8,0.7-1.5,1.5-1.5h0c0.8,0,1.5,0.7,1.5,1.5l0.1,208.5 C216.4,328.8,215.8,329.5,214.9,329.5L214.9,329.5z"></path> <linearGradient id="SVGID_5_" gradientUnits="userSpaceOnUse" x1="162.3646" y1="395.4893" x2="162.3646" y2="184.0107"> <stop offset="5.586592e-03" style="stop-color:#9BC146;stop-opacity:0.6"></stop> <stop offset="1" style="stop-color:#9DC34C;stop-opacity:0"></stop> </linearGradient> <path class="st4" d="M162.4,395.5c-0.8,0-1.5-0.7-1.5-1.5l-0.1-208.5c0-0.8,0.7-1.5,1.5-1.5h0c0.8,0,1.5,0.7,1.5,1.5l0.1,208.5 C163.9,394.8,163.2,395.5,162.4,395.5L162.4,395.5z"></path> <linearGradient id="SVGID_6_" gradientUnits="userSpaceOnUse" x1="388.7545" y1="323.3066" x2="388.7545" y2="-1.3901"> <stop offset="5.586592e-03" style="stop-color:#9BC146;stop-opacity:0.6"></stop> <stop offset="1" style="stop-color:#9DC34C;stop-opacity:0"></stop> </linearGradient> <path class="st5" d="M388.8,323.3c-0.8,0-1.5-0.7-1.5-1.5L387.2,0.1c0-0.8,0.7-1.5,1.5-1.5c0.8,0,1.5,0.7,1.5,1.5l0.1,321.7 C390.3,322.6,389.6,323.3,388.8,323.3z"></path> <polygon class="st6" points="188.6,271.2 305.5,338.7 422.3,271.2 305.5,203.7 "></polygon> <polygon class="st7" points="188.6,352.2 305.5,419.7 422.3,352.2 305.5,284.7 "></polygon> <polygon class="st8" points="422.3,352.2 422.3,379.2 305.5,446.6 305.5,419.7 "></polygon> <polygon class="st9" points="305.5,406.2 305.5,412.9 416.5,348.8 416.5,342 "></polygon> <polygon class="st10" points="200.3,352.2 200.3,345.4 305.5,406.2 305.5,412.9 "></polygon> <polygon class="st11" points="188.6,311.7 305.5,379.2 422.3,311.7 305.5,244.2 "></polygon> <polygon class="st12" points="422.3,311.7 422.3,338.7 305.5,406.2 305.5,379.2 "></polygon> <polygon class="st13" points="305.5,365.7 305.5,372.4 416.5,308.3 416.5,301.6 "></polygon> <polygon class="st14" points="200.3,311.7 200.3,304.9 305.5,365.7 305.5,372.4 "></polygon> <polygon class="st15" points="200.3,271.2 200.3,264.4 305.5,325.2 305.5,331.9 "></polygon> <polygon class="st16" points="188.6,230.7 188.6,257.7 305.5,325.2 305.5,298.2 "></polygon> <polygon class="st17" points="287.9,291.4 287.9,291.4 276.3,284.7 276.3,291.4 282.1,294.8 282.1,294.8 293.8,301.6 293.8,294.8 "></polygon> <polygon class="st18" points="293.8,308.3 293.8,304.9 287.9,301.6 287.9,301.6 276.3,294.8 276.3,301.6 276.3,301.6 276.3,304.9 282.1,308.3 293.8,315.1 293.8,308.3 "></polygon> <polygon class="st19" points="188.6,271.3 188.6,298.3 305.5,365.8 305.5,338.8 "></polygon> <polygon class="st20" points="287.9,332 287.9,332 276.3,325.3 276.2,332 282.1,335.4 282.1,335.4 293.8,342.1 293.8,335.4 "></polygon> <polygon class="st21" points="293.8,348.9 293.8,345.5 287.9,342.1 287.9,342.1 276.3,335.4 276.2,342.1 276.3,342.1 276.2,345.5 282.1,348.9 293.8,355.6 293.8,348.9 "></polygon> <polygon class="st22" points="188.6,311.7 188.6,338.7 305.5,406.2 305.5,379.2 "></polygon> <polygon class="st23" points="287.9,372.4 287.9,372.4 276.3,365.7 276.2,372.4 282.1,375.8 282.1,375.8 293.8,382.5 293.8,375.8 "></polygon> <polygon class="st24" points="293.8,389.3 293.8,385.9 287.9,382.5 287.9,382.5 276.3,375.8 276.2,382.5 276.3,382.5 276.2,385.9 282.1,389.3 293.8,396 293.8,389.3 "></polygon> <polygon class="st25" points="188.6,352.2 188.6,379.2 305.5,446.7 305.5,419.7 "></polygon> <polygon class="st26" points="287.9,412.9 287.9,412.9 276.3,406.2 276.2,412.9 282.1,416.3 282.1,416.3 293.8,423 293.8,416.3 "></polygon> <polygon class="st27" points="293.8,429.8 293.8,426.4 287.9,423 287.9,423 276.3,416.3 276.2,423 276.3,423 276.2,426.4 282.1,429.8 293.8,436.5 293.8,429.8 "></polygon> <g class="st28"> <g> <polygon class="st29" points="200.3,369 200.3,375.8 200.3,382.5 203.2,384.2 203.2,377.5 203.2,370.7 203.2,364 200.3,362.3 "></polygon> <polygon class="st29" points="206.1,372.4 206.1,379.2 206.1,385.9 209,387.6 209,380.9 209,374.1 209,367.4 206.1,365.7 "></polygon> <polygon class="st29" points="212,375.8 212,382.5 212,389.3 214.9,391 214.9,384.2 214.9,377.5 214.9,370.7 212,369 "></polygon> <polygon class="st29" points="217.8,379.2 217.8,385.9 217.8,392.7 220.7,394.4 220.7,387.6 220.7,380.9 220.7,374.1 217.8,372.4 "></polygon> <polygon class="st29" points="223.7,382.5 223.7,389.3 223.7,396 226.6,397.7 226.6,391 226.6,384.2 226.6,377.5 223.7,375.8 "></polygon> <polygon class="st29" points="229.5,385.9 229.5,392.7 229.5,399.4 232.4,401.1 232.4,394.4 232.4,387.6 232.4,380.9 229.5,379.2 "></polygon> <polygon class="st29" points="235.3,389.3 235.3,396 235.3,402.8 238.3,404.5 238.3,397.7 238.3,391 238.3,384.2 235.3,382.5 "></polygon> <polygon class="st29" points="241.2,392.7 241.2,399.4 241.2,406.2 244.1,407.9 244.1,401.1 244.1,394.4 244.1,387.6 241.2,385.9 "></polygon> <polygon class="st29" points="247,396 247,402.8 247,409.5 250,411.2 250,404.5 250,397.7 250,391 247,389.3 "></polygon> <polygon class="st29" points="252.9,399.4 252.9,406.2 252.9,412.9 255.8,414.6 255.8,407.9 255.8,401.1 255.8,394.4 252.9,392.7 "></polygon> <polygon class="st29" points="258.7,402.8 258.7,409.5 258.7,416.3 261.6,418 261.6,411.2 261.6,404.5 261.6,397.7 258.7,396 "></polygon> <polygon class="st29" points="264.6,406.2 264.6,412.9 264.6,419.7 267.5,421.3 267.5,414.6 267.5,407.9 267.5,401.1 264.6,399.4 "></polygon> <polygon class="st29" points="270.2,402.9 270.2,409.7 270.2,416.4 270.2,423.2 273.1,424.8 273.1,418.1 273.1,411.3 273.1,404.6 "></polygon> </g> </g> <g class="st30"> <g> <polygon class="st29" points="200.3,328.6 200.3,335.3 200.3,342.1 203.2,343.7 203.2,337 203.2,330.2 203.2,323.5 200.3,321.8 "></polygon> <polygon class="st29" points="206.1,331.9 206.1,338.7 206.1,345.4 209,347.1 209,340.4 209,333.6 209,326.9 206.1,325.2 "></polygon> <polygon class="st29" points="212,335.3 212,342.1 212,348.8 214.9,350.5 214.9,343.7 214.9,337 214.9,330.2 212,328.6 "></polygon> <polygon class="st29" points="217.8,338.7 217.8,345.4 217.8,352.2 220.7,353.9 220.7,347.1 220.7,340.4 220.7,333.6 217.8,331.9 "></polygon> <polygon class="st29" points="223.7,342.1 223.7,348.8 223.7,355.6 226.6,357.2 226.6,350.5 226.6,343.7 226.6,337 223.7,335.3 "></polygon> <polygon class="st29" points="229.5,345.4 229.5,352.2 229.5,358.9 232.4,360.6 232.4,353.9 232.4,347.1 232.4,340.4 229.5,338.7 "></polygon> <polygon class="st29" points="235.3,348.8 235.3,355.6 235.3,362.3 238.3,364 238.3,357.2 238.3,350.5 238.3,343.7 235.3,342.1 "></polygon> <polygon class="st29" points="241.2,352.2 241.2,358.9 241.2,365.7 244.1,367.4 244.1,360.6 244.1,353.9 244.1,347.1 241.2,345.4 "></polygon> <polygon class="st29" points="247,355.6 247,362.3 247,369 250,370.7 250,364 250,357.2 250,350.5 247,348.8 "></polygon> <polygon class="st29" points="252.9,358.9 252.9,365.7 252.9,372.4 255.8,374.1 255.8,367.4 255.8,360.6 255.8,353.9 252.9,352.2 "></polygon> <polygon class="st29" points="258.7,362.3 258.7,369 258.7,375.8 261.6,377.5 261.6,370.7 261.6,364 261.6,357.2 258.7,355.6 "></polygon> <polygon class="st29" points="264.6,365.7 264.6,372.4 264.6,379.2 267.5,380.9 267.5,374.1 267.5,367.4 267.5,360.6 264.6,358.9 "></polygon> <polygon class="st29" points="270.2,362.4 270.2,369.2 270.2,375.9 270.2,382.7 273.1,384.3 273.1,377.6 273.1,370.9 273.1,364.1 "></polygon> </g> </g> <g class="st31"> <g> <polygon class="st29" points="200.3,288.2 200.3,294.9 200.3,301.7 203.2,303.3 203.2,296.6 203.2,289.8 203.2,283.1 200.3,281.4 "></polygon> <polygon class="st29" points="206.1,291.5 206.1,298.3 206.1,305 209,306.7 209,300 209,293.2 209,286.5 206.1,284.8 "></polygon> <polygon class="st29" points="212,294.9 212,301.7 212,308.4 214.9,310.1 214.9,303.3 214.9,296.6 214.9,289.8 212,288.2 "></polygon> <polygon class="st29" points="217.8,298.3 217.8,305 217.8,311.8 220.7,313.5 220.7,306.7 220.7,300 220.7,293.2 217.8,291.5 "></polygon> <polygon class="st29" points="223.7,301.7 223.7,308.4 223.7,315.1 226.6,316.8 226.6,310.1 226.6,303.3 226.6,296.6 223.7,294.9 "></polygon> <polygon class="st29" points="229.5,305 229.5,311.8 229.5,318.5 232.4,320.2 232.4,313.5 232.4,306.7 232.4,300 229.5,298.3 "></polygon> <polygon class="st29" points="235.3,308.4 235.3,315.1 235.3,321.9 238.3,323.6 238.3,316.8 238.3,310.1 238.3,303.3 235.3,301.7 "></polygon> <polygon class="st29" points="241.2,311.8 241.2,318.5 241.2,325.3 244.1,327 244.1,320.2 244.1,313.5 244.1,306.7 241.2,305 "></polygon> <polygon class="st29" points="247,315.1 247,321.9 247,328.6 250,330.3 250,323.6 250,316.8 250,310.1 247,308.4 "></polygon> <polygon class="st29" points="252.9,318.5 252.9,325.3 252.9,332 255.8,333.7 255.8,327 255.8,320.2 255.8,313.5 252.9,311.8 "></polygon> <polygon class="st29" points="258.7,321.9 258.7,328.6 258.7,335.4 261.6,337.1 261.6,330.3 261.6,323.6 261.6,316.8 258.7,315.1 "></polygon> <polygon class="st29" points="264.6,325.3 264.6,332 264.6,338.8 267.5,340.5 267.5,333.7 267.5,327 267.5,320.2 264.6,318.5 "></polygon> <polygon class="st29" points="270.2,322 270.2,328.8 270.2,335.5 270.2,342.3 273.1,343.9 273.1,337.2 273.1,330.4 273.1,323.7 "></polygon> </g> </g> <g class="st30"> <g> <polygon class="st29" points="200.3,247.6 200.3,254.3 200.3,261.1 203.2,262.8 203.2,256 203.2,249.3 203.2,242.5 200.3,240.8 "></polygon> <polygon class="st29" points="206.1,250.9 206.1,257.7 206.1,264.4 209,266.1 209,259.4 209,252.6 209,245.9 206.1,244.2 "></polygon> <polygon class="st29" points="212,254.3 212,261.1 212,267.8 214.9,269.5 214.9,262.8 214.9,256 214.9,249.3 212,247.6 "></polygon> <polygon class="st29" points="217.8,257.7 217.8,264.4 217.8,271.2 220.7,272.9 220.7,266.1 220.7,259.4 220.7,252.6 217.8,250.9 "></polygon> <polygon class="st29" points="223.7,261.1 223.7,267.8 223.7,274.6 226.6,276.3 226.6,269.5 226.6,262.8 226.6,256 223.7,254.3 "></polygon> <polygon class="st29" points="229.5,264.4 229.5,271.2 229.5,277.9 232.4,279.6 232.4,272.9 232.4,266.1 232.4,259.4 229.5,257.7 "></polygon> <polygon class="st29" points="235.3,267.8 235.3,274.6 235.3,281.3 238.3,283 238.3,276.3 238.3,269.5 238.3,262.8 235.3,261.1 "></polygon> <polygon class="st29" points="241.2,271.2 241.2,277.9 241.2,284.7 244.1,286.4 244.1,279.6 244.1,272.9 244.1,266.1 241.2,264.4 "></polygon> <polygon class="st29" points="247,274.6 247,281.3 247,288.1 250,289.8 250,283 250,276.3 250,269.5 247,267.8 "></polygon> <polygon class="st29" points="252.9,277.9 252.9,284.7 252.9,291.4 255.8,293.1 255.8,286.4 255.8,279.6 255.8,272.9 252.9,271.2 "></polygon> <polygon class="st29" points="258.7,281.3 258.7,288.1 258.7,294.8 261.6,296.5 261.6,289.8 261.6,283 261.6,276.3 258.7,274.6 "></polygon> <polygon class="st29" points="264.6,284.7 264.6,291.4 264.6,298.2 267.5,299.9 267.5,293.1 267.5,286.4 267.5,279.6 264.6,277.9 "></polygon> <polygon class="st29" points="270.2,281.4 270.2,288.2 270.2,294.9 270.2,301.7 273.1,303.4 273.1,296.6 273.1,289.9 273.1,283.1 "></polygon> </g> </g> <polygon class="st32" points="422.3,271.2 422.3,298.2 305.5,365.7 305.5,338.7 "></polygon> <polygon class="st33" points="305.5,298.2 305.5,325.2 422.3,257.7 422.3,230.7 "></polygon> <polygon class="st34" points="305.5,325.2 305.5,331.9 416.5,267.8 416.5,261.1 "></polygon> <polygon class="st35" points="188.6,230.7 305.5,298.2 422.3,230.7 305.5,163.2 "></polygon> <polygon class="st6" points="328.9,352.2 445.7,419.7 562.6,352.2 445.7,284.7 "></polygon> <polygon class="st7" points="328.9,433.1 445.7,500.6 562.6,433.1 445.7,365.7 "></polygon> <polygon class="st8" points="562.6,433.1 562.6,460.1 445.7,527.6 445.7,500.6 "></polygon> <polygon class="st9" points="445.7,487.1 445.7,493.9 556.8,429.8 556.8,423 "></polygon> <polygon class="st10" points="340.5,433.1 340.5,426.4 445.7,487.1 445.7,493.9 "></polygon> <polygon class="st11" points="328.9,392.7 445.7,460.1 562.6,392.7 445.7,325.2 "></polygon> <polygon class="st12" points="562.6,392.7 562.6,419.7 445.7,487.1 445.7,460.1 "></polygon> <polygon class="st13" points="445.7,446.7 445.7,453.4 556.8,389.3 556.8,382.5 "></polygon> <polygon class="st14" points="340.5,392.7 340.5,385.9 445.7,446.6 445.7,453.4 "></polygon> <polygon class="st15" points="340.5,352.2 340.5,345.4 445.7,406.2 445.7,412.9 "></polygon> <polygon class="st16" points="328.9,311.7 328.9,338.7 445.7,406.2 445.7,379.2 "></polygon> <polygon class="st36" points="428.2,372.4 428.2,372.4 416.5,365.7 416.5,372.4 422.4,375.8 422.4,375.8 434,382.5 434,375.8 "></polygon> <polygon class="st37" points="434,389.3 434,385.9 428.2,382.5 428.2,382.5 416.5,375.8 416.5,382.5 416.5,382.5 416.5,385.9 422.4,389.3 434,396 434,389.3 "></polygon> <polygon class="st19" points="328.9,352.3 328.9,379.3 445.7,446.7 445.7,419.7 "></polygon> <polygon class="st20" points="428.2,413 428.2,413 416.5,406.2 416.5,413 422.4,416.4 422.4,416.4 434,423.1 434,416.4 "></polygon> <polygon class="st21" points="434,429.9 434,426.5 428.2,423.1 428.2,423.1 416.5,416.4 416.5,423.1 416.5,423.1 416.5,426.5 422.4,429.9 434,436.6 434,429.9 "></polygon> <polygon class="st22" points="328.9,392.7 328.9,419.7 445.7,487.1 445.7,460.1 "></polygon> <polygon class="st23" points="428.2,453.4 428.2,453.4 416.5,446.6 416.5,453.4 422.4,456.8 422.4,456.8 434,463.5 434,456.8 "></polygon> <polygon class="st24" points="434,470.3 434,466.9 428.2,463.5 428.2,463.5 416.5,456.8 416.5,463.5 416.5,463.5 416.5,466.9 422.4,470.3 434,477 434,470.3 "></polygon> <polygon class="st25" points="328.9,433.2 328.9,460.1 445.7,527.6 445.7,500.6 "></polygon> <polygon class="st26" points="428.2,493.9 428.2,493.9 416.5,487.1 416.5,493.9 422.4,497.3 422.4,497.3 434,504 434,497.3 "></polygon> <polygon class="st27" points="434,510.8 434,507.4 428.2,504 428.2,504 416.5,497.3 416.5,504 416.5,504 416.5,507.4 422.4,510.8 434,517.5 434,510.8 "></polygon> <g class="st28"> <g> <polygon class="st29" points="340.5,450 340.5,456.8 340.5,463.5 343.5,465.2 343.5,458.5 343.5,451.7 343.5,445 340.5,443.3 "></polygon> <polygon class="st29" points="346.4,453.4 346.4,460.1 346.4,466.9 349.3,468.6 349.3,461.8 349.3,455.1 349.3,448.3 346.4,446.7 "></polygon> <polygon class="st29" points="352.2,456.8 352.2,463.5 352.2,470.3 355.2,472 355.2,465.2 355.2,458.5 355.2,451.7 352.2,450 "></polygon> <polygon class="st29" points="358.1,460.1 358.1,466.9 358.1,473.6 361,475.3 361,468.6 361,461.8 361,455.1 358.1,453.4 "></polygon> <polygon class="st29" points="363.9,463.5 363.9,470.3 363.9,477 366.8,478.7 366.8,472 366.8,465.2 366.8,458.5 363.9,456.8 "></polygon> <polygon class="st29" points="369.8,466.9 369.8,473.6 369.8,480.4 372.7,482.1 372.7,475.3 372.7,468.6 372.7,461.8 369.8,460.1 "></polygon> <polygon class="st29" points="375.6,470.3 375.6,477 375.6,483.8 378.5,485.5 378.5,478.7 378.5,472 378.5,465.2 375.6,463.5 "></polygon> <polygon class="st29" points="381.5,473.6 381.5,480.4 381.5,487.1 384.4,488.8 384.4,482.1 384.4,475.3 384.4,468.6 381.5,466.9 "></polygon> <polygon class="st29" points="387.3,477 387.3,483.8 387.3,490.5 390.2,492.2 390.2,485.5 390.2,478.7 390.2,472 387.3,470.3 "></polygon> <polygon class="st29" points="393.1,480.4 393.1,487.1 393.1,493.9 396.1,495.6 396.1,488.8 396.1,482.1 396.1,475.3 393.1,473.6 "></polygon> <polygon class="st29" points="399,483.8 399,490.5 399,497.3 401.9,499 401.9,492.2 401.9,485.5 401.9,478.7 399,477 "></polygon> <polygon class="st29" points="404.8,487.1 404.8,493.9 404.8,500.6 407.7,502.3 407.7,495.6 407.7,488.8 407.7,482.1 404.8,480.4 "></polygon> <polygon class="st29" points="410.5,483.9 410.5,490.6 410.5,497.4 410.5,504.1 413.4,505.8 413.4,499.1 413.4,492.3 413.4,485.6 "></polygon> </g> </g> <g class="st30"> <g> <polygon class="st29" points="340.5,409.5 340.5,416.3 340.5,423 343.5,424.7 343.5,418 343.5,411.2 343.5,404.5 340.5,402.8 "></polygon> <polygon class="st29" points="346.4,412.9 346.4,419.7 346.4,426.4 349.3,428.1 349.3,421.3 349.3,414.6 349.3,407.8 346.4,406.2 "></polygon> <polygon class="st29" points="352.2,416.3 352.2,423 352.2,429.8 355.1,431.5 355.1,424.7 355.1,418 355.1,411.2 352.2,409.5 "></polygon> <polygon class="st29" points="358.1,419.7 358.1,426.4 358.1,433.2 361,434.8 361,428.1 361,421.3 361,414.6 358.1,412.9 "></polygon> <polygon class="st29" points="363.9,423 363.9,429.8 363.9,436.5 366.8,438.2 366.8,431.5 366.8,424.7 366.8,418 363.9,416.3 "></polygon> <polygon class="st29" points="369.8,426.4 369.8,433.2 369.8,439.9 372.7,441.6 372.7,434.8 372.7,428.1 372.7,421.3 369.8,419.7 "></polygon> <polygon class="st29" points="375.6,429.8 375.6,436.5 375.6,443.3 378.5,445 378.5,438.2 378.5,431.5 378.5,424.7 375.6,423 "></polygon> <polygon class="st29" points="381.4,433.2 381.4,439.9 381.4,446.7 384.4,448.3 384.4,441.6 384.4,434.8 384.4,428.1 381.4,426.4 "></polygon> <polygon class="st29" points="387.3,436.5 387.3,443.3 387.3,450 390.2,451.7 390.2,445 390.2,438.2 390.2,431.5 387.3,429.8 "></polygon> <polygon class="st29" points="393.1,439.9 393.1,446.7 393.1,453.4 396.1,455.1 396.1,448.3 396.1,441.6 396.1,434.8 393.1,433.2 "></polygon> <polygon class="st29" points="399,443.3 399,450 399,456.8 401.9,458.5 401.9,451.7 401.9,445 401.9,438.2 399,436.5 "></polygon> <polygon class="st29" points="404.8,446.7 404.8,453.4 404.8,460.1 407.7,461.8 407.7,455.1 407.7,448.3 407.7,441.6 404.8,439.9 "></polygon> <polygon class="st29" points="410.5,443.4 410.5,450.1 410.5,456.9 410.5,463.6 413.4,465.3 413.4,458.6 413.4,451.8 413.4,445.1 "></polygon> </g> </g> <g class="st31"> <g> <polygon class="st29" points="340.5,369.1 340.5,375.9 340.5,382.6 343.5,384.3 343.5,377.6 343.5,370.8 343.5,364.1 340.5,362.4 "></polygon> <polygon class="st29" points="346.4,372.5 346.4,379.3 346.4,386 349.3,387.7 349.3,380.9 349.3,374.2 349.3,367.4 346.4,365.8 "></polygon> <polygon class="st29" points="352.2,375.9 352.2,382.6 352.2,389.4 355.2,391.1 355.2,384.3 355.2,377.6 355.2,370.8 352.2,369.1 "></polygon> <polygon class="st29" points="358.1,379.3 358.1,386 358.1,392.8 361,394.4 361,387.7 361,380.9 361,374.2 358.1,372.5 "></polygon> <polygon class="st29" points="363.9,382.6 363.9,389.4 363.9,396.1 366.8,397.8 366.8,391.1 366.8,384.3 366.8,377.6 363.9,375.9 "></polygon> <polygon class="st29" points="369.8,386 369.8,392.8 369.8,399.5 372.7,401.2 372.7,394.4 372.7,387.7 372.7,380.9 369.8,379.3 "></polygon> <polygon class="st29" points="375.6,389.4 375.6,396.1 375.6,402.9 378.5,404.6 378.5,397.8 378.5,391.1 378.5,384.3 375.6,382.6 "></polygon> <polygon class="st29" points="381.4,392.8 381.4,399.5 381.4,406.2 384.4,407.9 384.4,401.2 384.4,394.4 384.4,387.7 381.4,386 "></polygon> <polygon class="st29" points="387.3,396.1 387.3,402.9 387.3,409.6 390.2,411.3 390.2,404.6 390.2,397.8 390.2,391.1 387.3,389.4 "></polygon> <polygon class="st29" points="393.1,399.5 393.1,406.2 393.1,413 396.1,414.7 396.1,407.9 396.1,401.2 396.1,394.4 393.1,392.8 "></polygon> <polygon class="st29" points="399,402.9 399,409.6 399,416.4 401.9,418.1 401.9,411.3 401.9,404.6 401.9,397.8 399,396.1 "></polygon> <polygon class="st29" points="404.8,406.2 404.8,413 404.8,419.7 407.7,421.4 407.7,414.7 407.7,407.9 407.7,401.2 404.8,399.5 "></polygon> <polygon class="st29" points="410.5,403 410.5,409.7 410.5,416.5 410.5,423.2 413.4,424.9 413.4,418.2 413.4,411.4 413.4,404.7 "></polygon> </g> </g> <g> <g> <polygon class="st29" points="340.5,328.5 340.5,335.3 340.5,342 343.5,343.7 343.5,337 343.5,330.2 343.5,323.5 340.5,321.8 "></polygon> <polygon class="st29" points="346.4,331.9 346.4,338.7 346.4,345.4 349.3,347.1 349.3,340.4 349.3,333.6 349.3,326.9 346.4,325.2 "></polygon> <polygon class="st29" points="352.2,335.3 352.2,342 352.2,348.8 355.2,350.5 355.2,343.7 355.2,337 355.2,330.2 352.2,328.5 "></polygon> <polygon class="st29" points="358.1,338.7 358.1,345.4 358.1,352.2 361,353.9 361,347.1 361,340.4 361,333.6 358.1,331.9 "></polygon> <polygon class="st29" points="363.9,342 363.9,348.8 363.9,355.5 366.8,357.2 366.8,350.5 366.8,343.7 366.8,337 363.9,335.3 "></polygon> <polygon class="st29" points="369.8,345.4 369.8,352.2 369.8,358.9 372.7,360.6 372.7,353.9 372.7,347.1 372.7,340.4 369.8,338.7 "></polygon> <polygon class="st29" points="375.6,348.8 375.6,355.5 375.6,362.3 378.5,364 378.5,357.2 378.5,350.5 378.5,343.7 375.6,342 "></polygon> <polygon class="st29" points="381.4,352.2 381.4,358.9 381.4,365.7 384.4,367.4 384.4,360.6 384.4,353.9 384.4,347.1 381.4,345.4 "></polygon> <polygon class="st29" points="387.3,355.5 387.3,362.3 387.3,369 390.2,370.7 390.2,364 390.2,357.2 390.2,350.5 387.3,348.8 "></polygon> <polygon class="st29" points="393.1,358.9 393.1,365.7 393.1,372.4 396.1,374.1 396.1,367.4 396.1,360.6 396.1,353.9 393.1,352.2 "></polygon> <polygon class="st29" points="399,362.3 399,369 399,375.8 401.9,377.5 401.9,370.7 401.9,364 401.9,357.2 399,355.5 "></polygon> <polygon class="st29" points="404.8,365.7 404.8,372.4 404.8,379.2 407.7,380.9 407.7,374.1 407.7,367.4 407.7,360.6 404.8,358.9 "></polygon> <polygon class="st29" points="410.5,362.4 410.5,369.2 410.5,375.9 410.5,382.7 413.4,384.3 413.4,377.6 413.4,370.8 413.4,364.1 "></polygon> </g> </g> <polygon class="st32" points="562.6,352.2 562.6,379.2 445.7,446.6 445.7,419.7 "></polygon> <polygon class="st33" points="445.7,379.2 445.7,406.2 562.6,338.7 562.6,311.7 "></polygon> <polygon class="st34" points="445.7,406.2 445.7,412.9 556.8,348.8 556.8,342 "></polygon> <polygon class="st35" points="328.9,311.7 445.7,379.2 562.6,311.7 445.7,244.2 "></polygon> <polygon class="st6" points="48.3,352.2 165.2,419.6 282.1,352.2 165.2,284.7 "></polygon> <polygon class="st7" points="48.4,433.1 165.2,500.6 282.1,433.1 165.2,365.7 "></polygon> <polygon class="st8" points="282.1,433.1 282.1,460.1 165.2,527.6 165.2,500.6 "></polygon> <polygon class="st9" points="165.2,487.1 165.2,493.9 276.3,429.8 276.3,423 "></polygon> <polygon class="st10" points="60,433.1 60,426.4 165.2,487.1 165.2,493.9 "></polygon> <polygon class="st11" points="48.4,392.7 165.2,460.1 282.1,392.6 165.2,325.2 "></polygon> <polygon class="st12" points="282.1,392.7 282.1,419.6 165.2,487.1 165.2,460.1 "></polygon> <polygon class="st13" points="165.2,446.6 165.2,453.4 276.3,389.3 276.3,382.5 "></polygon> <polygon class="st14" points="60,392.7 60,385.9 165.2,446.6 165.2,453.4 "></polygon> <polygon class="st15" points="60,352.2 60,345.4 165.2,406.1 165.2,412.9 "></polygon> <polygon class="st16" points="48.4,311.7 48.4,338.7 165.2,406.2 165.2,379.2 "></polygon> <polygon class="st36" points="147.7,372.4 147.7,372.4 136,365.7 136,372.4 141.8,375.8 141.8,375.8 153.5,382.5 153.5,375.8 "></polygon> <polygon class="st37" points="153.5,389.3 153.5,385.9 147.7,382.5 147.7,382.5 136,375.8 136,382.5 136,382.5 136,385.9 141.8,389.3 153.5,396 153.5,389.3 "></polygon> <polygon class="st19" points="48.3,352.3 48.3,379.2 165.2,446.7 165.2,419.7 "></polygon> <polygon class="st20" points="147.7,413 147.7,413 136,406.2 136,413 141.8,416.4 141.8,416.4 153.5,423.1 153.5,416.4 "></polygon> <polygon class="st21" points="153.5,429.9 153.5,426.5 147.7,423.1 147.7,423.1 136,416.4 136,423.1 136,423.1 136,426.5 141.8,429.9 153.5,436.6 153.5,429.9 "></polygon> <polygon class="st22" points="48.3,392.7 48.3,419.6 165.2,487.1 165.2,460.1 "></polygon> <polygon class="st23" points="147.7,453.4 147.7,453.4 136,446.6 136,453.4 141.8,456.8 141.8,456.8 153.5,463.5 153.5,456.8 "></polygon> <polygon class="st24" points="153.5,470.3 153.5,466.9 147.7,463.5 147.7,463.5 136,456.8 136,463.5 136,463.5 136,466.9 141.8,470.3 153.5,477 153.5,470.3 "></polygon> <polygon class="st25" points="48.3,433.1 48.3,460.1 165.2,527.6 165.2,500.6 "></polygon> <polygon class="st26" points="147.7,493.9 147.7,493.9 136,487.1 136,493.9 141.8,497.3 141.8,497.3 153.5,504 153.5,497.2 "></polygon> <polygon class="st27" points="153.5,510.7 153.5,507.4 147.7,504 147.7,504 136,497.2 136,504 136,504 136,507.4 141.8,510.8 153.5,517.5 153.5,510.7 "></polygon> <g class="st28"> <g> <polygon class="st29" points="60,450 60,456.8 60,463.5 63,465.2 63,458.5 63,451.7 63,445 60,443.3 "></polygon> <polygon class="st29" points="65.9,453.4 65.9,460.1 65.9,466.9 68.8,468.6 68.8,461.8 68.8,455.1 68.8,448.3 65.9,446.6 "></polygon> <polygon class="st29" points="71.7,456.8 71.7,463.5 71.7,470.3 74.6,472 74.6,465.2 74.6,458.5 74.6,451.7 71.7,450 "></polygon> <polygon class="st29" points="77.6,460.1 77.6,466.9 77.6,473.6 80.5,475.3 80.5,468.6 80.5,461.8 80.5,455.1 77.6,453.4 "></polygon> <polygon class="st29" points="83.4,463.5 83.4,470.3 83.4,477 86.3,478.7 86.3,472 86.3,465.2 86.3,458.5 83.4,456.8 "></polygon> <polygon class="st29" points="89.3,466.9 89.3,473.6 89.3,480.4 92.2,482.1 92.2,475.3 92.2,468.6 92.2,461.8 89.3,460.1 "></polygon> <polygon class="st29" points="95.1,470.3 95.1,477 95.1,483.8 98,485.4 98,478.7 98,472 98,465.2 95.1,463.5 "></polygon> <polygon class="st29" points="100.9,473.6 100.9,480.4 100.9,487.1 103.9,488.8 103.9,482.1 103.9,475.3 103.9,468.6 100.9,466.9 "></polygon> <polygon class="st29" points="106.8,477 106.8,483.8 106.8,490.5 109.7,492.2 109.7,485.4 109.7,478.7 109.7,472 106.8,470.3 "></polygon> <polygon class="st29" points="112.6,480.4 112.6,487.1 112.6,493.9 115.6,495.6 115.6,488.8 115.6,482.1 115.6,475.3 112.6,473.6 "></polygon> <polygon class="st29" points="118.5,483.8 118.5,490.5 118.5,497.3 121.4,498.9 121.4,492.2 121.4,485.4 121.4,478.7 118.5,477 "></polygon> <polygon class="st29" points="124.3,487.1 124.3,493.9 124.3,500.6 127.2,502.3 127.2,495.6 127.2,488.8 127.2,482.1 124.3,480.4 "></polygon> <polygon class="st29" points="130,483.9 130,490.6 130,497.4 130,504.1 132.9,505.8 132.9,499.1 132.9,492.3 132.9,485.6 "></polygon> </g> </g> <g class="st30"> <g> <polygon class="st29" points="60,409.5 60,416.3 60,423 63,424.7 63,418 63,411.2 63,404.5 60,402.8 "></polygon> <polygon class="st29" points="65.9,412.9 65.9,419.6 65.9,426.4 68.8,428.1 68.8,421.3 68.8,414.6 68.8,407.8 65.9,406.2 "></polygon> <polygon class="st29" points="71.7,416.3 71.7,423 71.7,429.8 74.6,431.5 74.6,424.7 74.6,418 74.6,411.2 71.7,409.5 "></polygon> <polygon class="st29" points="77.6,419.6 77.6,426.4 77.6,433.1 80.5,434.8 80.5,428.1 80.5,421.3 80.5,414.6 77.6,412.9 "></polygon> <polygon class="st29" points="83.4,423 83.4,429.8 83.4,436.5 86.3,438.2 86.3,431.5 86.3,424.7 86.3,418 83.4,416.3 "></polygon> <polygon class="st29" points="89.3,426.4 89.3,433.1 89.3,439.9 92.2,441.6 92.2,434.8 92.2,428.1 92.2,421.3 89.3,419.6 "></polygon> <polygon class="st29" points="95.1,429.8 95.1,436.5 95.1,443.3 98,445 98,438.2 98,431.5 98,424.7 95.1,423 "></polygon> <polygon class="st29" points="100.9,433.1 100.9,439.9 100.9,446.6 103.9,448.3 103.9,441.6 103.9,434.8 103.9,428.1 100.9,426.4 "></polygon> <polygon class="st29" points="106.8,436.5 106.8,443.3 106.8,450 109.7,451.7 109.7,445 109.7,438.2 109.7,431.5 106.8,429.8 "></polygon> <polygon class="st29" points="112.6,439.9 112.6,446.6 112.6,453.4 115.6,455.1 115.6,448.3 115.6,441.6 115.6,434.8 112.6,433.1 "></polygon> <polygon class="st29" points="118.5,443.3 118.5,450 118.5,456.8 121.4,458.5 121.4,451.7 121.4,445 121.4,438.2 118.5,436.5 "></polygon> <polygon class="st29" points="124.3,446.6 124.3,453.4 124.3,460.1 127.2,461.8 127.2,455.1 127.2,448.3 127.2,441.6 124.3,439.9 "></polygon> <polygon class="st29" points="130,443.4 130,450.1 130,456.9 130,463.6 132.9,465.3 132.9,458.6 132.9,451.8 132.9,445.1 "></polygon> </g> </g> <g class="st31"> <g> <polygon class="st29" points="60,369.1 60,375.9 60,382.6 63,384.3 63,377.6 63,370.8 63,364.1 60,362.4 "></polygon> <polygon class="st29" points="65.9,372.5 65.9,379.2 65.9,386 68.8,387.7 68.8,380.9 68.8,374.2 68.8,367.4 65.9,365.8 "></polygon> <polygon class="st29" points="71.7,375.9 71.7,382.6 71.7,389.4 74.6,391.1 74.6,384.3 74.6,377.6 74.6,370.8 71.7,369.1 "></polygon> <polygon class="st29" points="77.6,379.2 77.6,386 77.6,392.7 80.5,394.4 80.5,387.7 80.5,380.9 80.5,374.2 77.6,372.5 "></polygon> <polygon class="st29" points="83.4,382.6 83.4,389.4 83.4,396.1 86.3,397.8 86.3,391.1 86.3,384.3 86.3,377.6 83.4,375.9 "></polygon> <polygon class="st29" points="89.3,386 89.3,392.7 89.3,399.5 92.2,401.2 92.2,394.4 92.2,387.7 92.2,380.9 89.3,379.2 "></polygon> <polygon class="st29" points="95.1,389.4 95.1,396.1 95.1,402.9 98,404.6 98,397.8 98,391.1 98,384.3 95.1,382.6 "></polygon> <polygon class="st29" points="100.9,392.7 100.9,399.5 100.9,406.2 103.9,407.9 103.9,401.2 103.9,394.4 103.9,387.7 100.9,386 "></polygon> <polygon class="st29" points="106.8,396.1 106.8,402.9 106.8,409.6 109.7,411.3 109.7,404.6 109.7,397.8 109.7,391.1 106.8,389.4 "></polygon> <polygon class="st29" points="112.6,399.5 112.6,406.2 112.6,413 115.6,414.7 115.6,407.9 115.6,401.2 115.6,394.4 112.6,392.7 "></polygon> <polygon class="st29" points="118.5,402.9 118.5,409.6 118.5,416.4 121.4,418.1 121.4,411.3 121.4,404.6 121.4,397.8 118.5,396.1 "></polygon> <polygon class="st29" points="124.3,406.2 124.3,413 124.3,419.7 127.2,421.4 127.2,414.7 127.2,407.9 127.2,401.2 124.3,399.5 "></polygon> <polygon class="st29" points="130,403 130,409.7 130,416.5 130,423.2 132.9,424.9 132.9,418.2 132.9,411.4 132.9,404.7 "></polygon> </g> </g> <g> <g> <polygon class="st29" points="60,328.5 60,335.3 60,342 63,343.7 63,337 63,330.2 63,323.5 60,321.8 "></polygon> <polygon class="st29" points="65.9,331.9 65.9,338.7 65.9,345.4 68.8,347.1 68.8,340.4 68.8,333.6 68.8,326.9 65.9,325.2 "></polygon> <polygon class="st29" points="71.7,335.3 71.7,342 71.7,348.8 74.6,350.5 74.6,343.7 74.6,337 74.6,330.2 71.7,328.5 "></polygon> <polygon class="st29" points="77.6,338.7 77.6,345.4 77.6,352.2 80.5,353.8 80.5,347.1 80.5,340.4 80.5,333.6 77.6,331.9 "></polygon> <polygon class="st29" points="83.4,342 83.4,348.8 83.4,355.5 86.3,357.2 86.3,350.5 86.3,343.7 86.3,337 83.4,335.3 "></polygon> <polygon class="st29" points="89.3,345.4 89.3,352.2 89.3,358.9 92.2,360.6 92.2,353.8 92.2,347.1 92.2,340.4 89.3,338.7 "></polygon> <polygon class="st29" points="95.1,348.8 95.1,355.5 95.1,362.3 98,364 98,357.2 98,350.5 98,343.7 95.1,342 "></polygon> <polygon class="st29" points="100.9,352.2 100.9,358.9 100.9,365.7 103.9,367.3 103.9,360.6 103.9,353.8 103.9,347.1 100.9,345.4 "></polygon> <polygon class="st29" points="106.8,355.5 106.8,362.3 106.8,369 109.7,370.7 109.7,364 109.7,357.2 109.7,350.5 106.8,348.8 "></polygon> <polygon class="st29" points="112.6,358.9 112.6,365.7 112.6,372.4 115.6,374.1 115.6,367.3 115.6,360.6 115.6,353.8 112.6,352.2 "></polygon> <polygon class="st29" points="118.5,362.3 118.5,369 118.5,375.8 121.4,377.5 121.4,370.7 121.4,364 121.4,357.2 118.5,355.5 "></polygon> <polygon class="st29" points="124.3,365.7 124.3,372.4 124.3,379.2 127.2,380.8 127.2,374.1 127.2,367.3 127.2,360.6 124.3,358.9 "></polygon> <polygon class="st29" points="130,362.4 130,369.1 130,375.9 130,382.6 132.9,384.3 132.9,377.6 132.9,370.8 132.9,364.1 "></polygon> </g> </g> <polygon class="st32" points="282.1,352.2 282.1,379.2 165.2,446.6 165.2,419.6 "></polygon> <polygon class="st33" points="165.2,379.2 165.2,406.2 282.1,338.7 282.1,311.7 "></polygon> <polygon class="st34" points="165.2,406.2 165.2,412.9 276.3,348.8 276.3,342 "></polygon> <polygon class="st35" points="48.4,311.7 165.2,379.2 282.1,311.7 165.2,244.2 "></polygon> <linearGradient id="SVGID_7_" gradientUnits="userSpaceOnUse" x1="286.2355" y1="306.6309" x2="307.1222" y2="306.6309"> <stop offset="5.586592e-03" style="stop-color:#518E80"></stop> <stop offset="1" style="stop-color:#518EAF;stop-opacity:0.6"></stop> </linearGradient> <path class="st38" d="M287.7,363.9c-0.8,0-1.5-0.7-1.5-1.5v-47.4c0-0.5,0.3-1,0.8-1.3l17.1-9.7v-53.2c0-0.8,0.7-1.5,1.5-1.5 s1.5,0.7,1.5,1.5v54.1c0,0.5-0.3,1-0.8,1.3l-17.1,9.7v46.5C289.2,363.2,288.6,363.9,287.7,363.9z"></path> <linearGradient id="SVGID_8_" gradientUnits="userSpaceOnUse" x1="321.5109" y1="308.3066" x2="324.5109" y2="308.3066"> <stop offset="5.586592e-03" style="stop-color:#518EF3"></stop> <stop offset="1" style="stop-color:#518EF3;stop-opacity:0.6"></stop> </linearGradient> <path class="st39" d="M323,357c-0.8,0-1.5-0.7-1.5-1.5v-94.5c0-0.8,0.7-1.5,1.5-1.5s1.5,0.7,1.5,1.5v94.5 C324.5,356.4,323.8,357,323,357z"></path> <polygon class="st40" points="188.6,433.2 305.5,500.6 422.4,433.1 305.5,365.7 "></polygon> <polygon class="st7" points="188.6,514.1 305.5,581.6 422.4,514.1 305.5,446.6 "></polygon> <polygon class="st8" points="422.4,514.1 422.4,541.1 305.5,608.6 305.5,581.6 "></polygon> <polygon class="st9" points="305.5,568.1 305.5,574.9 416.5,510.8 416.5,504 "></polygon> <polygon class="st10" points="200.3,514.1 200.3,507.4 305.5,568.1 305.5,574.9 "></polygon> <polygon class="st41" points="188.6,473.6 305.5,541.1 422.4,473.6 305.5,406.2 "></polygon> <polygon class="st42" points="422.4,473.6 422.4,500.6 305.5,568.1 305.5,541.1 "></polygon> <polygon class="st13" points="305.5,527.6 305.5,534.4 416.5,470.3 416.5,463.5 "></polygon> <polygon class="st14" points="200.3,473.6 200.3,466.9 305.5,527.6 305.5,534.4 "></polygon> <polygon class="st15" points="200.3,433.1 200.3,426.4 305.5,487.1 305.5,493.9 "></polygon> <polygon class="st16" points="188.6,392.7 188.6,419.7 305.5,487.1 305.5,460.1 "></polygon> <polygon class="st36" points="288,453.4 288,453.4 276.3,446.6 276.3,453.4 282.1,456.8 282.1,456.8 293.8,463.5 293.8,456.8 "></polygon> <polygon class="st37" points="293.8,470.3 293.8,466.9 288,463.5 288,463.5 276.3,456.8 276.3,463.5 276.3,463.5 276.3,466.9 282.1,470.3 293.8,477 293.8,470.3 "></polygon> <polygon class="st19" points="188.6,433.2 188.6,460.2 305.5,527.7 305.5,500.7 "></polygon> <polygon class="st20" points="287.9,494 287.9,494 276.3,487.2 276.3,494 282.1,497.3 282.1,497.3 293.8,504.1 293.8,497.3 "></polygon> <polygon class="st21" points="293.8,510.8 293.8,507.5 287.9,504.1 287.9,504.1 276.3,497.3 276.3,504.1 276.3,504.1 276.3,507.5 282.1,510.8 293.8,517.6 293.8,510.8 "></polygon> <polygon class="st22" points="188.6,473.6 188.6,500.6 305.5,568.1 305.5,541.1 "></polygon> <polygon class="st23" points="287.9,534.4 287.9,534.4 276.3,527.6 276.3,534.4 282.1,537.7 282.1,537.7 293.8,544.5 293.8,537.7 "></polygon> <polygon class="st24" points="293.8,551.2 293.8,547.9 287.9,544.5 287.9,544.5 276.3,537.7 276.3,544.5 276.3,544.5 276.3,547.9 282.1,551.2 293.8,558 293.8,551.2 "></polygon> <polygon class="st25" points="188.6,514.1 188.6,541.1 305.5,608.6 305.5,581.6 "></polygon> <polygon class="st26" points="287.9,574.9 287.9,574.9 276.3,568.1 276.3,574.9 282.1,578.2 282.1,578.2 293.8,585 293.8,578.2 "></polygon> <polygon class="st27" points="293.8,591.7 293.8,588.4 287.9,585 287.9,585 276.3,578.2 276.3,585 276.3,585 276.3,588.4 282.1,591.7 293.8,598.5 293.8,591.7 "></polygon> <g class="st28"> <g> <polygon class="st29" points="200.3,531 200.3,537.8 200.3,544.5 203.2,546.2 203.2,539.4 203.2,532.7 203.2,525.9 200.3,524.3 "></polygon> <polygon class="st29" points="206.1,534.4 206.1,541.1 206.1,547.9 209.1,549.6 209.1,542.8 209.1,536.1 209.1,529.3 206.1,527.6 "></polygon> <polygon class="st29" points="212,537.8 212,544.5 212,551.3 214.9,552.9 214.9,546.2 214.9,539.4 214.9,532.7 212,531 "></polygon> <polygon class="st29" points="217.8,541.1 217.8,547.9 217.8,554.6 220.7,556.3 220.7,549.6 220.7,542.8 220.7,536.1 217.8,534.4 "></polygon> <polygon class="st29" points="223.7,544.5 223.7,551.3 223.7,558 226.6,559.7 226.6,552.9 226.6,546.2 226.6,539.4 223.7,537.8 "></polygon> <polygon class="st29" points="229.5,547.9 229.5,554.6 229.5,561.4 232.4,563.1 232.4,556.3 232.4,549.6 232.4,542.8 229.5,541.1 "></polygon> <polygon class="st29" points="235.4,551.3 235.4,558 235.4,564.8 238.3,566.4 238.3,559.7 238.3,552.9 238.3,546.2 235.4,544.5 "></polygon> <polygon class="st29" points="241.2,554.6 241.2,561.4 241.2,568.1 244.1,569.8 244.1,563.1 244.1,556.3 244.1,549.6 241.2,547.9 "></polygon> <polygon class="st29" points="247,558 247,564.8 247,571.5 250,573.2 250,566.4 250,559.7 250,552.9 247,551.3 "></polygon> <polygon class="st29" points="252.9,561.4 252.9,568.1 252.9,574.9 255.8,576.6 255.8,569.8 255.8,563.1 255.8,556.3 252.9,554.6 "></polygon> <polygon class="st29" points="258.7,564.8 258.7,571.5 258.7,578.2 261.6,579.9 261.6,573.2 261.6,566.4 261.6,559.7 258.7,558 "></polygon> <polygon class="st29" points="264.6,568.1 264.6,574.9 264.6,581.6 267.5,583.3 267.5,576.6 267.5,569.8 267.5,563.1 264.6,561.4 "></polygon> <polygon class="st29" points="270.2,564.9 270.2,571.6 270.2,578.4 270.2,585.1 273.1,586.8 273.1,580.1 273.1,573.3 273.1,566.6 "></polygon> </g> </g> <g class="st30"> <g> <polygon class="st29" points="200.3,490.5 200.3,497.3 200.3,504 203.2,505.7 203.2,499 203.2,492.2 203.2,485.5 200.3,483.8 "></polygon> <polygon class="st29" points="206.1,493.9 206.1,500.6 206.1,507.4 209.1,509.1 209.1,502.3 209.1,495.6 209.1,488.8 206.1,487.1 "></polygon> <polygon class="st29" points="212,497.3 212,504 212,510.8 214.9,512.4 214.9,505.7 214.9,499 214.9,492.2 212,490.5 "></polygon> <polygon class="st29" points="217.8,500.6 217.8,507.4 217.8,514.1 220.7,515.8 220.7,509.1 220.7,502.3 220.7,495.6 217.8,493.9 "></polygon> <polygon class="st29" points="223.7,504 223.7,510.8 223.7,517.5 226.6,519.2 226.6,512.4 226.6,505.7 226.6,499 223.7,497.3 "></polygon> <polygon class="st29" points="229.5,507.4 229.5,514.1 229.5,520.9 232.4,522.6 232.4,515.8 232.4,509.1 232.4,502.3 229.5,500.6 "></polygon> <polygon class="st29" points="235.4,510.8 235.4,517.5 235.4,524.3 238.3,525.9 238.3,519.2 238.3,512.4 238.3,505.7 235.4,504 "></polygon> <polygon class="st29" points="241.2,514.1 241.2,520.9 241.2,527.6 244.1,529.3 244.1,522.6 244.1,515.8 244.1,509.1 241.2,507.4 "></polygon> <polygon class="st29" points="247,517.5 247,524.3 247,531 250,532.7 250,525.9 250,519.2 250,512.4 247,510.8 "></polygon> <polygon class="st29" points="252.9,520.9 252.9,527.6 252.9,534.4 255.8,536.1 255.8,529.3 255.8,522.6 255.8,515.8 252.9,514.1 "></polygon> <polygon class="st29" points="258.7,524.3 258.7,531 258.7,537.8 261.6,539.4 261.6,532.7 261.6,525.9 261.6,519.2 258.7,517.5 "></polygon> <polygon class="st29" points="264.6,527.6 264.6,534.4 264.6,541.1 267.5,542.8 267.5,536.1 267.5,529.3 267.5,522.6 264.6,520.9 "></polygon> <polygon class="st29" points="270.2,524.4 270.2,531.1 270.2,537.9 270.2,544.6 273.1,546.3 273.1,539.6 273.1,532.8 273.1,526.1 "></polygon> </g> </g> <g class="st31"> <g> <polygon class="st29" points="200.3,450.1 200.3,456.9 200.3,463.6 203.2,465.3 203.2,458.5 203.2,451.8 203.2,445.1 200.3,443.4 "></polygon> <polygon class="st29" points="206.1,453.5 206.1,460.2 206.1,467 209.1,468.7 209.1,461.9 209.1,455.2 209.1,448.4 206.1,446.7 "></polygon> <polygon class="st29" points="212,456.9 212,463.6 212,470.4 214.9,472 214.9,465.3 214.9,458.5 214.9,451.8 212,450.1 "></polygon> <polygon class="st29" points="217.8,460.2 217.8,467 217.8,473.7 220.7,475.4 220.7,468.7 220.7,461.9 220.7,455.2 217.8,453.5 "></polygon> <polygon class="st29" points="223.7,463.6 223.7,470.4 223.7,477.1 226.6,478.8 226.6,472 226.6,465.3 226.6,458.5 223.7,456.9 "></polygon> <polygon class="st29" points="229.5,467 229.5,473.7 229.5,480.5 232.4,482.2 232.4,475.4 232.4,468.7 232.4,461.9 229.5,460.2 "></polygon> <polygon class="st29" points="235.4,470.4 235.4,477.1 235.4,483.9 238.3,485.5 238.3,478.8 238.3,472 238.3,465.3 235.4,463.6 "></polygon> <polygon class="st29" points="241.2,473.7 241.2,480.5 241.2,487.2 244.1,488.9 244.1,482.2 244.1,475.4 244.1,468.7 241.2,467 "></polygon> <polygon class="st29" points="247,477.1 247,483.9 247,490.6 250,492.3 250,485.5 250,478.8 250,472 247,470.4 "></polygon> <polygon class="st29" points="252.9,480.5 252.9,487.2 252.9,494 255.8,495.7 255.8,488.9 255.8,482.2 255.8,475.4 252.9,473.7 "></polygon> <polygon class="st29" points="258.7,483.9 258.7,490.6 258.7,497.4 261.6,499 261.6,492.3 261.6,485.5 261.6,478.8 258.7,477.1 "></polygon> <polygon class="st29" points="264.6,487.2 264.6,494 264.6,500.7 267.5,502.4 267.5,495.7 267.5,488.9 267.5,482.2 264.6,480.5 "></polygon> <polygon class="st29" points="270.2,484 270.2,490.7 270.2,497.5 270.2,504.2 273.1,505.9 273.1,499.2 273.1,492.4 273.1,485.7 "></polygon> </g> </g> <g> <g> <polygon class="st29" points="200.3,409.5 200.3,416.3 200.3,423 203.2,424.7 203.2,418 203.2,411.2 203.2,404.5 200.3,402.8 "></polygon> <polygon class="st29" points="206.1,412.9 206.1,419.7 206.1,426.4 209.1,428.1 209.1,421.3 209.1,414.6 209.1,407.8 206.1,406.2 "></polygon> <polygon class="st29" points="212,416.3 212,423 212,429.8 214.9,431.5 214.9,424.7 214.9,418 214.9,411.2 212,409.5 "></polygon> <polygon class="st29" points="217.8,419.7 217.8,426.4 217.8,433.2 220.7,434.8 220.7,428.1 220.7,421.3 220.7,414.6 217.8,412.9 "></polygon> <polygon class="st29" points="223.7,423 223.7,429.8 223.7,436.5 226.6,438.2 226.6,431.5 226.6,424.7 226.6,418 223.7,416.3 "></polygon> <polygon class="st29" points="229.5,426.4 229.5,433.2 229.5,439.9 232.4,441.6 232.4,434.8 232.4,428.1 232.4,421.3 229.5,419.7 "></polygon> <polygon class="st29" points="235.4,429.8 235.4,436.5 235.4,443.3 238.3,445 238.3,438.2 238.3,431.5 238.3,424.7 235.4,423 "></polygon> <polygon class="st29" points="241.2,433.2 241.2,439.9 241.2,446.6 244.1,448.3 244.1,441.6 244.1,434.8 244.1,428.1 241.2,426.4 "></polygon> <polygon class="st29" points="247,436.5 247,443.3 247,450 250,451.7 250,445 250,438.2 250,431.5 247,429.8 "></polygon> <polygon class="st29" points="252.9,439.9 252.9,446.6 252.9,453.4 255.8,455.1 255.8,448.3 255.8,441.6 255.8,434.8 252.9,433.2 "></polygon> <polygon class="st29" points="258.7,443.3 258.7,450 258.7,456.8 261.6,458.5 261.6,451.7 261.6,445 261.6,438.2 258.7,436.5 "></polygon> <polygon class="st29" points="264.6,446.6 264.6,453.4 264.6,460.1 267.5,461.8 267.5,455.1 267.5,448.3 267.5,441.6 264.6,439.9 "></polygon> <polygon class="st29" points="270.2,443.4 270.2,450.1 270.2,456.9 270.2,463.6 273.1,465.3 273.1,458.6 273.1,451.8 273.1,445.1 "></polygon> </g> </g> <polygon class="st43" points="422.4,433.2 422.4,460.1 305.5,527.6 305.5,500.6 "></polygon> <polygon class="st33" points="305.5,460.1 305.5,487.1 422.4,419.6 422.4,392.7 "></polygon> <polygon class="st34" points="305.5,487.1 305.5,493.9 416.5,429.8 416.5,423 "></polygon> <polygon class="st35" points="188.6,392.7 305.5,460.1 422.4,392.7 305.5,325.2 "></polygon> <linearGradient id="SVGID_9_" gradientUnits="userSpaceOnUse" x1="311.0763" y1="434.6152" x2="341.0314" y2="434.6152"> <stop offset="0" style="stop-color:#81B833"></stop> <stop offset="1" style="stop-color:#81B833;stop-opacity:0"></stop> </linearGradient> <polygon class="st44" points="341,453.4 340,453.4 340,440.2 328,433.3 333.7,429.8 311.1,416.7 311.6,415.8 335.7,429.8 330,433.2 341,439.6 "></polygon> <linearGradient id="SVGID_10_" gradientUnits="userSpaceOnUse" x1="269.4611" y1="431.4546" x2="311.5734" y2="431.4546"> <stop offset="0" style="stop-color:#81B833"></stop> <stop offset="1" style="stop-color:#81B833;stop-opacity:0"></stop> </linearGradient> <polygon class="st45" points="311.1,450.4 269.5,426.4 293.6,412.5 294.1,413.3 271.5,426.4 311.6,449.6 "></polygon> <g class="st30"> <linearGradient id="SVGID_11_" gradientUnits="userSpaceOnUse" x1="290.5091" y1="333.8697" x2="274.855" y2="306.756" gradientTransform="matrix(-1 0 0 -1 551.3734 683.0193)"> <stop offset="0" style="stop-color:#81B833;stop-opacity:0"></stop> <stop offset="0.8898" style="stop-color:#81B833"></stop> </linearGradient> <line class="st46" x1="288" y1="375.8" x2="252.8" y2="355.6"></line> <linearGradient id="SVGID_12_" gradientUnits="userSpaceOnUse" x1="263.1628" y1="317.3455" x2="298.7746" y2="317.3455" gradientTransform="matrix(-1 0 0 -1 551.3734 683.0193)"> <stop offset="0" style="stop-color:#81B833"></stop> <stop offset="1" style="stop-color:#81B833;stop-opacity:0"></stop> </linearGradient> <polygon class="st47" points="287.7,376.2 252.6,356 253.1,355.1 288.2,375.4 "></polygon> </g> <linearGradient id="SVGID_13_" gradientUnits="userSpaceOnUse" x1="340.2931" y1="379.0884" x2="387.5402" y2="379.0884"> <stop offset="0" style="stop-color:#81B833"></stop> <stop offset="1" style="stop-color:#81B833;stop-opacity:0"></stop> </linearGradient> <polygon class="st48" points="340.8,386.3 340.3,385.5 363.9,371.8 375.6,378.6 387,372.1 387.5,372.9 375.6,379.7 363.9,373 "></polygon> <linearGradient id="SVGID_14_" gradientUnits="userSpaceOnUse" x1="239.8127" y1="357.8362" x2="275.3991" y2="357.8362" gradientTransform="matrix(-1 0 0 -1 504.6478 764.0012)"> <stop offset="0" style="stop-color:#81B833"></stop> <stop offset="1" style="stop-color:#81B833;stop-opacity:0"></stop> </linearGradient> <polygon class="st49" points="229.7,416.7 229.2,415.9 264.3,395.6 264.8,396.5 "></polygon> <linearGradient id="SVGID_15_" gradientUnits="userSpaceOnUse" x1="274.8752" y1="357.8296" x2="310.4372" y2="357.8296" gradientTransform="matrix(-1 0 0 -1 574.7484 763.9882)"> <stop offset="0" style="stop-color:#81B833"></stop> <stop offset="1" style="stop-color:#81B833;stop-opacity:0"></stop> </linearGradient> <polygon class="st50" points="264.8,416.7 264.3,415.8 299.4,395.6 299.9,396.5 "></polygon> <linearGradient id="SVGID_16_" gradientUnits="userSpaceOnUse" x1="316.9288" y1="412.9063" x2="340.8058" y2="412.9063"> <stop offset="0" style="stop-color:#81B833"></stop> <stop offset="1" style="stop-color:#81B833;stop-opacity:0"></stop> </linearGradient> <polygon class="st51" points="340.3,420.1 316.9,406.6 317.4,405.7 340.8,419.2 "></polygon> <linearGradient id="SVGID_17_" gradientUnits="userSpaceOnUse" x1="293.5358" y1="363.978" x2="323.2609" y2="363.978"> <stop offset="0" style="stop-color:#81B833"></stop> <stop offset="1" style="stop-color:#81B833;stop-opacity:0"></stop> </linearGradient> <polygon class="st52" points="294,372.8 293.5,372 322.8,355.1 323.3,356 "></polygon> <linearGradient id="SVGID_18_" gradientUnits="userSpaceOnUse" x1="299.5431" y1="391.0132" x2="375.8771" y2="391.0132"> <stop offset="0" style="stop-color:#81B833"></stop> <stop offset="1" style="stop-color:#81B833;stop-opacity:0"></stop> </linearGradient> <polygon class="st53" points="375.4,413.3 299.5,369.6 300,368.7 375.9,412.5 "></polygon> <linearGradient id="SVGID_19_" gradientUnits="userSpaceOnUse" x1="281.0914" y1="358.9175" x2="305.8898" y2="358.9175"> <stop offset="0" style="stop-color:#81B833"></stop> <stop offset="1" style="stop-color:#81B833;stop-opacity:0"></stop> </linearGradient> <polygon class="st54" points="305.4,372.9 281.1,358.9 305.4,344.9 305.9,345.8 283.1,358.9 305.9,372.1 "></polygon> <linearGradient id="SVGID_20_" gradientUnits="userSpaceOnUse" x1="271.3098" y1="419.6014" x2="358.2686" y2="351.1713"> <stop offset="0" style="stop-color:#B8D789"></stop> <stop offset="1" style="stop-color:#8FB833"></stop> </linearGradient> <path class="st55" d="M309.3,424.2l49.8-28.6c2.2-1.3,2.2-4.4,0-5.7l-49.8-28.8c-2.5-1.4-5.5-1.4-8,0L251.7,390 c-2.1,1.2-2.1,4.2,0,5.4l49.7,28.8C303.8,425.6,306.8,425.6,309.3,424.2z"></path> <linearGradient id="SVGID_21_" gradientUnits="userSpaceOnUse" x1="188.3492" y1="343.5186" x2="218.3043" y2="343.5186"> <stop offset="0" style="stop-color:#81B833"></stop> <stop offset="1" style="stop-color:#81B833;stop-opacity:0"></stop> </linearGradient> <polygon class="st56" points="218.3,362.3 217.3,362.3 217.3,349.1 205.3,342.2 211,338.7 188.3,325.6 188.8,324.7 212.9,338.7 207.3,342.1 218.3,348.5 "></polygon> <linearGradient id="SVGID_22_" gradientUnits="userSpaceOnUse" x1="129.34" y1="345.3291" x2="153.9479" y2="345.3291"> <stop offset="0" style="stop-color:#81B833"></stop> <stop offset="1" style="stop-color:#81B833;stop-opacity:0"></stop> </linearGradient> <polygon class="st57" points="153.4,359.3 129.3,345.3 153.4,331.4 153.9,332.3 131.3,345.3 153.9,358.4 "></polygon> <linearGradient id="SVGID_23_" gradientUnits="userSpaceOnUse" x1="80.6866" y1="258.2949" x2="104.5459" y2="258.2949" gradientTransform="matrix(-1 0 0 -1 259.1984 595.2773)"> <stop offset="0" style="stop-color:#81B833"></stop> <stop offset="1" style="stop-color:#81B833;stop-opacity:0"></stop> </linearGradient> <polygon class="st58" points="155.2,344.2 154.7,343.3 178,329.8 178.5,330.7 "></polygon> <g> <linearGradient id="SVGID_24_" gradientUnits="userSpaceOnUse" x1="443.5185" y1="402.0498" x2="427.8644" y2="374.9362" gradientTransform="matrix(-1 0 0 -1 551.3734 683.0193)"> <stop offset="0" style="stop-color:#81B833;stop-opacity:0"></stop> <stop offset="0.8898" style="stop-color:#81B833"></stop> </linearGradient> <line class="st59" x1="135" y1="307.6" x2="99.8" y2="287.4"></line> <linearGradient id="SVGID_25_" gradientUnits="userSpaceOnUse" x1="416.1726" y1="385.5251" x2="451.7839" y2="385.5251" gradientTransform="matrix(-1 0 0 -1 551.3734 683.0193)"> <stop offset="0" style="stop-color:#81B833"></stop> <stop offset="1" style="stop-color:#81B833;stop-opacity:0"></stop> </linearGradient> <polygon class="st60" points="134.7,308.1 99.6,287.8 100.1,286.9 135.2,307.2 "></polygon> </g> <linearGradient id="SVGID_26_" gradientUnits="userSpaceOnUse" x1="379.9338" y1="443.9221" x2="398.1301" y2="443.9221" gradientTransform="matrix(-1 0 0 -1 504.6478 764.0012)"> <stop offset="0" style="stop-color:#81B833"></stop> <stop offset="1" style="stop-color:#81B833;stop-opacity:0"></stop> </linearGradient> <polygon class="st61" points="107,325.6 106.5,324.8 124.2,314.5 124.7,315.4 "></polygon> <linearGradient id="SVGID_27_" gradientUnits="userSpaceOnUse" x1="414.9958" y1="433.769" x2="468.3385" y2="433.769" gradientTransform="matrix(-1 0 0 -1 574.7484 763.9882)"> <stop offset="0" style="stop-color:#81B833"></stop> <stop offset="1" style="stop-color:#81B833;stop-opacity:0"></stop> </linearGradient> <polygon class="st62" points="106.9,345.9 106.4,345 159.3,314.5 159.8,315.4 "></polygon> <linearGradient id="SVGID_28_" gradientUnits="userSpaceOnUse" x1="176.8082" y1="331.8379" x2="200.6847" y2="331.8379"> <stop offset="0" style="stop-color:#81B833"></stop> <stop offset="1" style="stop-color:#81B833;stop-opacity:0"></stop> </linearGradient> <polygon class="st63" points="200.2,339 176.8,325.5 177.3,324.7 200.7,338.1 "></polygon> <linearGradient id="SVGID_29_" gradientUnits="userSpaceOnUse" x1="153.4147" y1="282.9097" x2="183.1403" y2="282.9097"> <stop offset="0" style="stop-color:#81B833"></stop> <stop offset="1" style="stop-color:#81B833;stop-opacity:0"></stop> </linearGradient> <polygon class="st64" points="153.9,291.8 153.4,290.9 182.6,274 183.1,274.9 "></polygon> <linearGradient id="SVGID_30_" gradientUnits="userSpaceOnUse" x1="159.422" y1="309.9446" x2="235.7565" y2="309.9446"> <stop offset="0" style="stop-color:#81B833"></stop> <stop offset="1" style="stop-color:#81B833;stop-opacity:0"></stop> </linearGradient> <polygon class="st65" points="235.3,332.3 159.4,288.5 159.9,287.6 235.8,331.4 "></polygon> <linearGradient id="SVGID_31_" gradientUnits="userSpaceOnUse" x1="129.1632" y1="284.679" x2="153.9615" y2="284.679"> <stop offset="0" style="stop-color:#81B833"></stop> <stop offset="1" style="stop-color:#81B833;stop-opacity:0"></stop> </linearGradient> <polygon class="st66" points="153.5,298.7 129.2,284.7 153.5,270.7 154,271.5 131.2,284.7 154,297.8 "></polygon> <linearGradient id="SVGID_32_" gradientUnits="userSpaceOnUse" x1="188.3473" y1="289.6592" x2="218.0909" y2="289.6592"> <stop offset="0" style="stop-color:#81B833"></stop> <stop offset="1" style="stop-color:#81B833;stop-opacity:0"></stop> </linearGradient> <polygon class="st67" points="188.8,305.2 188.3,304.3 211,291.4 199.3,284.7 217.6,274.1 218.1,275 201.3,284.7 213,291.4 "></polygon> <linearGradient id="SVGID_33_" gradientUnits="userSpaceOnUse" x1="151.9709" y1="345.6914" x2="192.3629" y2="242.6719"> <stop offset="0" style="stop-color:#B8D789"></stop> <stop offset="1" style="stop-color:#8FB833"></stop> </linearGradient> <path class="st68" d="M169.2,343.1l49.8-28.6c2.2-1.3,2.2-4.4,0-5.7l-49.8-28.8c-2.5-1.4-5.5-1.4-8,0l-49.7,28.8 c-2.1,1.2-2.1,4.2,0,5.4l49.7,28.8C163.7,344.5,166.7,344.5,169.2,343.1z"></path> <path class="st69" d="M134.5,309.2l26.7-15.4c2.5-1.5,5.7-1.5,8.2,0l26.9,15.5c1.8,1,1.8,3.6,0,4.6l-27,15.6c-2.5,1.5-5.7,1.5-8.2,0 l-26.6-15.3C132.6,313.1,132.6,310.3,134.5,309.2z"></path> <path class="st69" d="M274.8,390.3l26.7-15.4c2.5-1.5,5.7-1.5,8.2,0l26.9,15.5c1.8,1,1.8,3.6,0,4.6l-27,15.6c-2.5,1.5-5.7,1.5-8.2,0 l-26.6-15.3C272.9,394.1,272.9,391.4,274.8,390.3z"></path> <linearGradient id="SVGID_34_" gradientUnits="userSpaceOnUse" x1="328.8548" y1="392.6613" x2="328.8548" y2="392.6613"> <stop offset="0" style="stop-color:#518EF3"></stop> <stop offset="1" style="stop-color:#518EF3;stop-opacity:0.3"></stop> </linearGradient> <path class="st70" d="M328.9,392.7"></path> <linearGradient id="SVGID_35_" gradientUnits="userSpaceOnUse" x1="163.7267" y1="289.6992" x2="289.4425" y2="289.6992"> <stop offset="5.586592e-03" style="stop-color:#518EF3"></stop> <stop offset="1" style="stop-color:#518EF3;stop-opacity:0.6"></stop> </linearGradient> <path class="st71" d="M235.5,333.3c-0.3,0-0.5-0.1-0.7-0.2l-68-39.3l0.1,17.7c0,0.8-0.7,1.5-1.5,1.5c0,0,0,0,0,0 c-0.8,0-1.5-0.7-1.5-1.5l-0.1-20.3c0-0.5,0.3-1,0.7-1.3c0.5-0.3,1-0.3,1.5,0l69.5,40.1l50.9-29.4v-53.1c0-0.8,0.7-1.5,1.5-1.5 s1.5,0.7,1.5,1.5v54c0,0.5-0.3,1-0.8,1.3l-52.4,30.3C236,333.3,235.8,333.3,235.5,333.3z"></path> <linearGradient id="SVGID_36_" gradientUnits="userSpaceOnUse" x1="251.5455" y1="323.2371" x2="307.1398" y2="323.2371"> <stop offset="5.586592e-03" style="stop-color:#518E80"></stop> <stop offset="1" style="stop-color:#518EAF;stop-opacity:0.6"></stop> </linearGradient> <path class="st72" d="M305.6,394.1c-0.8,0-1.5-0.7-1.5-1.5v-19.2l-51.8-29.9c-0.5-0.3-0.7-0.8-0.8-1.3c0-0.5,0.3-1,0.7-1.3 l45.7-26.7v-60.2c0-0.8,0.7-1.5,1.5-1.5s1.5,0.7,1.5,1.5V315c0,0.5-0.3,1-0.7,1.3L256,342.1l50.4,29.1c0.5,0.3,0.8,0.8,0.8,1.3v20.1 C307.1,393.4,306.5,394.1,305.6,394.1z"></path> <linearGradient id="SVGID_37_" gradientUnits="userSpaceOnUse" x1="309.6583" y1="281.3584" x2="447.4095" y2="281.3584"> <stop offset="5.586592e-03" style="stop-color:#518EF3"></stop> <stop offset="1" style="stop-color:#518EF3;stop-opacity:0.3"></stop> </linearGradient> <path class="st73" d="M381.5,330c-0.3,0-0.5-0.1-0.8-0.2l-51.9-29.9l-16.9,9.8c-0.5,0.3-1,0.3-1.5,0c-0.5-0.3-0.8-0.8-0.8-1.3v-74.2 c0-0.8,0.7-1.5,1.5-1.5s1.5,0.7,1.5,1.5v71.6l15.4-8.9c0.5-0.3,1-0.3,1.5,0l51.9,29.9l63.7-36.6c0.5-0.3,1-0.3,1.5,0 c0.5,0.3,0.7,0.8,0.7,1.3l-0.3,20.2c0,0.8-0.7,1.5-1.5,1.5c-0.8,0-1.5-0.7-1.5-1.5l0.3-17.6l-62.1,35.7C382,330,381.7,330,381.5,330 z"></path> <linearGradient id="SVGID_38_" gradientUnits="userSpaceOnUse" x1="562.5836" y1="275.8984" x2="562.5836" y2="154.3921"> <stop offset="5.586592e-03" style="stop-color:#518EF3;stop-opacity:0.6"></stop> <stop offset="1" style="stop-color:#518EF3;stop-opacity:0"></stop> </linearGradient> <path class="st74" d="M562.6,275.9c-0.8,0-1.5-0.7-1.5-1.5L561,155.9c0-0.8,0.7-1.5,1.5-1.5h0c0.8,0,1.5,0.7,1.5,1.5l0.1,118.5 C564.1,275.2,563.5,275.9,562.6,275.9L562.6,275.9z"></path> <ellipse class="st75" cx="562.6" cy="275" rx="7.5" ry="3.7"></ellipse> <path class="st15" d="M511.3,246.6L511.3,246.6C511.3,246.6,511.3,246.6,511.3,246.6C511.3,246.6,511.3,246.6,511.3,246.6z"></path> <path class="st16" d="M515,244.6l-3.7,2C512.6,246.1,513.9,245.4,515,244.6z"></path> <linearGradient id="SVGID_39_" gradientUnits="userSpaceOnUse" x1="245.4298" y1="271.1465" x2="295.4816" y2="271.1465"> <stop offset="5.586592e-03" style="stop-color:#518E80"></stop> <stop offset="1" style="stop-color:#518EAF;stop-opacity:0.6"></stop> </linearGradient> <path class="st76" d="M294,299.7c-0.3,0-0.5-0.1-0.7-0.2l-47.1-27.1c-0.5-0.3-0.8-0.8-0.8-1.3c0-0.5,0.3-1,0.8-1.3l46.9-27 c0.7-0.4,1.6-0.2,2,0.6c0.4,0.7,0.2,1.6-0.6,2l-44.6,25.7l42.5,24.5v-44.8c0-0.8,0.7-1.5,1.5-1.5s1.5,0.7,1.5,1.5v47.3 c0,0.5-0.3,1-0.7,1.3C294.5,299.6,294.2,299.7,294,299.7z"></path> <g> <linearGradient id="SVGID_40_" gradientUnits="userSpaceOnUse" x1="225.6401" y1="155.3865" x2="266.1335" y2="155.3865"> <stop offset="0" style="stop-color:#89C9FC"></stop> <stop offset="1" style="stop-color:#C4DDFD"></stop> </linearGradient> <path class="st77" d="M244.4,159c4,1.9,7.7,4.6,10.9,7.9c2.3-8.3,6-15.4,10.8-20.9c-7-2.9-13.4-2.7-18.6,0l0,0l-0.1,0.1 c-0.2,0.1-0.5,0.3-0.7,0.4l-21,11.7v0C231,155.7,237.4,155.8,244.4,159z"></path> <linearGradient id="SVGID_41_" gradientUnits="userSpaceOnUse" x1="276.7697" y1="211.3796" x2="419.8149" y2="211.3796"> <stop offset="0" style="stop-color:#89C9FC"></stop> <stop offset="1" style="stop-color:#C4DDFD"></stop> </linearGradient> <path class="st78" d="M389.6,204.6c-3.5-1.6-6.9-2.6-10.2-2.9c-1.4-31-18.9-63.6-45.4-75.9c-11.9-5.5-22.9-5.8-32.1-1.9 c0,0,0,0,0,0l-0.1,0.1c-2,0.9-3.9,1.9-5.8,3.1l-19.3,10.5l0,0c9.7-5,21.6-5.3,34.5,0.8c26.5,12.4,44,44.9,45.4,75.9 c3.2,0.3,6.6,1.2,10.2,2.9c21.9,10.2,34.6,41.2,28.9,65.2c-2.1,8.7-6.3,15.2-11.7,19.1l19.5-10.6l0,0c6.9-3.4,12.5-10.6,14.9-21 C424.2,245.9,411.5,214.9,389.6,204.6z"></path> <linearGradient id="SVGID_42_" gradientUnits="userSpaceOnUse" x1="216.2404" y1="168.4621" x2="386.8149" y2="242.8548"> <stop offset="0" style="stop-color:#96C8FC"></stop> <stop offset="1" style="stop-color:#CDDFFD"></stop> </linearGradient> <path class="st79" d="M366.8,217.2c-3.5-1.6-6.9-2.6-10.2-2.9c-1.4-31-18.9-63.6-45.4-75.9c-12.9-6-24.9-5.8-34.5-0.8 c-4,2-7.5,4.9-10.6,8.4c-4.8,5.5-8.6,12.6-10.8,20.9c-3.2-3.3-6.9-6-10.9-7.9c-7-3.3-13.4-3.3-18.8-0.9c-8.9,4-14.7,14.8-14.7,28.7 c0,20.8,11.4,35.7,24.1,43.6l0,0l0.6,0.3c0.4,0.3,0.9,0.6,1.3,0.8c0.2,0.1,0.4,0.2,0.6,0.3l49.7,28.7l13.6,7.9l54.5,31.5 c0.9,0.6,1.9,1.2,2.8,1.7c7.2,4.3,14.5,4.9,20.8,2.5c0,0,0,0,0.1,0l4.9-2.7c5.4-3.9,9.6-10.4,11.7-19.1 C401.4,258.4,388.8,227.4,366.8,217.2z"></path> </g> <ellipse class="st80" cx="165.3" cy="312.2" rx="7.5" ry="3.7"></ellipse> <ellipse class="st80" cx="305.6" cy="392.7" rx="8.1" ry="4"></ellipse> <ellipse class="st80" cx="445.7" cy="311.7" rx="8.3" ry="4.1"></ellipse> <g> <g> <linearGradient id="SVGID_43_" gradientUnits="userSpaceOnUse" x1="131.2577" y1="163.2178" x2="158.2876" y2="163.2178"> <stop offset="0" style="stop-color:#B8D789"></stop> <stop offset="1" style="stop-color:#8FB833"></stop> </linearGradient> <path class="st81" d="M146.4,144.1c-7.9,0.9-15.2,8.9-15.1,17.7c0.1,10.7,13.7,20.1,14.2,20.5c0.5,0.3,1.3,0,1.8-0.8 c0.5-0.8,11-17.7,11-26.1C158.3,148.4,153.3,143.3,146.4,144.1z M146.4,165.2c-3.8,1.1-7.1-1.2-7.1-5.3c0-4.1,3.3-8.1,7.1-8.7 c3.6-0.6,6.3,1.9,6.3,5.5C152.7,160.3,149.9,164.1,146.4,165.2z"></path> </g> </g> <linearGradient id="SVGID_44_" gradientUnits="userSpaceOnUse" x1="0.1246" y1="306.6182" x2="67.3558" y2="306.6182"> <stop offset="0" style="stop-color:#518EF3;stop-opacity:0.8"></stop> <stop offset="0.3408" style="stop-color:#518EF3;stop-opacity:0.3"></stop> <stop offset="1" style="stop-color:#518EF3;stop-opacity:0"></stop> </linearGradient> <path class="st82" d="M48.6,340.2c-0.3,0-0.5-0.1-0.7-0.2l-47-27.1c-0.5-0.3-0.8-0.8-0.8-1.3s0.3-1,0.8-1.3l64.2-37.1 c0.7-0.4,1.6-0.2,2,0.5c0.4,0.7,0.2,1.6-0.5,2l-62,35.8l44.7,25.8c0.7,0.4,1,1.3,0.5,2C49.6,339.9,49.1,340.2,48.6,340.2z"></path> <g> <g> <linearGradient id="SVGID_45_" gradientUnits="userSpaceOnUse" x1="392.0765" y1="136.4109" x2="423.4121" y2="136.4109"> <stop offset="0" style="stop-color:#B8D789"></stop> <stop offset="1" style="stop-color:#8FB833"></stop> </linearGradient> <path class="st83" d="M418.7,143.3c-1.9-2.9-4.2-5.3-6.6-7c2.8-1.4,4.8-4.6,5-8.8c0.3-7-4.2-13.6-9.8-14.4 c-5.2-0.8-9.2,3.8-9.3,10c0,3.8,1.4,7.5,3.6,10.1c-2.1,0.3-4,1.2-5.5,2.7c-2.6,2.5-3.9,6.3-3.9,10.8l2,0.8c0-8,5.4-13.1,12.5-10.9 c7.9,2.4,14.4,12.5,13.9,21.9l3,1.2C423.7,154.4,422,148.5,418.7,143.3z M406.6,133.6c-3.7-1.1-6.5-5.5-6.4-10 c0.1-4.6,3.1-7.9,6.9-7.2c4,0.7,7.2,5.4,7,10.5C414,131.8,410.5,134.7,406.6,133.6z"></path> </g> </g> <g> <g> <linearGradient id="SVGID_46_" gradientUnits="userSpaceOnUse" x1="388.0091" y1="444.9562" x2="415.7847" y2="444.9562"> <stop offset="0" style="stop-color:#B8D789"></stop> <stop offset="1" style="stop-color:#8FB833"></stop> </linearGradient> <path class="st84" d="M401.9,425.8c-7.7,0-13.9,6.2-13.9,13.9c0,9.5,12.4,23.5,13,24c0.5,0.6,1.4,0.6,1.9,0c0.5-0.6,13-14.5,13-24 C415.8,432,409.6,425.8,401.9,425.8z M401.9,446.7c-3.9,0-7-3.1-7-7s3.1-7,7-7c3.9,0,7,3.1,7,7S405.7,446.7,401.9,446.7z"></path> </g> </g> <linearGradient id="SVGID_47_" gradientUnits="userSpaceOnUse" x1="51.2867" y1="240.7332" x2="92.164" y2="240.7332"> <stop offset="0" style="stop-color:#B8D789"></stop> <stop offset="1" style="stop-color:#8FB833"></stop> </linearGradient> <path class="st85" d="M51.3,243.9l0.1,14c0,3.6,3.9,5.8,7,4L88,244.9c2.6-1.5,4.2-4.2,4.2-7.2v-14.2c0-3.5-3.8-5.8-6.9-4l-29.8,17.2 C52.9,238.2,51.3,240.9,51.3,243.9z"></path> <linearGradient id="SVGID_48_" gradientUnits="userSpaceOnUse" x1="493.9623" y1="224.804" x2="514.4178" y2="189.3741"> <stop offset="0" style="stop-color:#96C8FC"></stop> <stop offset="1" style="stop-color:#CDDFFD"></stop> </linearGradient> <path class="st86" d="M492.5,184.2v35c0,3,1.6,5.7,4.2,7.2l12.8,7.4c2.9,1.7,6.5-0.4,6.5-3.7v-34.5c0-3.3-1.8-6.3-4.6-8l-12.4-7.1 C496.1,178.8,492.5,180.9,492.5,184.2z"></path> <linearGradient id="SVGID_49_" gradientUnits="userSpaceOnUse" x1="503.5753" y1="252.0375" x2="524.0308" y2="216.6075"> <stop offset="0" style="stop-color:#96C8FC"></stop> <stop offset="1" style="stop-color:#CDDFFD"></stop> </linearGradient> <path class="st87" d="M502.1,211.4v35c0,3,1.6,5.7,4.2,7.2l12.8,7.4c2.9,1.7,6.5-0.4,6.5-3.7v-34.5c0-3.3-1.8-6.3-4.6-8l-12.4-7.1 C505.7,206,502.1,208.1,502.1,211.4z"></path> </svg> 